<svg width="500" height="542" viewBox="0 0 500 542" fill="none" xmlns="http://www.w3.org/2000/svg">
<path d="M390.085 286.775C390.085 261.491 383.764 240.723 370.219 223.567C353.966 202.798 327.78 186.545 291.661 173C238.385 152.232 214.908 134.172 214.908 98.0533C214.908 76.3819 228.453 51.0986 262.766 42.9718C267.281 42.0689 270.892 41.1659 275.407 41.1659C276.31 41.1659 277.213 41.1659 277.213 41.1659C279.922 41.1659 283.534 41.1659 286.243 41.1659C309.72 41.1659 328.683 46.5837 343.13 52.0016C352.16 55.6135 362.996 50.1957 366.608 41.1659L369.316 34.8451C372.025 25.8154 367.51 15.8826 359.384 12.2708C342.227 5.94994 318.75 0.532104 288.952 0.532104C286.243 0.532104 284.437 0.532104 281.728 0.532104C279.019 0.532104 276.31 0.532104 273.601 0.532104C153.506 0.532104 72.2383 82.7027 72.2383 203.701C72.2383 330.117 154.409 405.064 262.766 398.743C262.766 398.743 268.183 398.743 275.407 397.841C292.564 396.035 307.914 392.423 320.556 387.005C331.392 383.393 341.324 377.072 350.354 369.848C376.54 348.177 390.085 318.379 390.085 286.775ZM124.611 202.798C124.611 201.895 124.611 201.895 124.611 200.992C124.611 151.329 139.058 115.21 164.342 89.0235C163.439 94.4414 163.439 98.9562 163.439 104.374C163.439 158.552 202.266 191.06 265.475 213.634C273.601 216.343 279.922 219.955 287.146 222.664C323.265 239.82 338.615 259.686 338.615 290.387C338.615 329.215 308.817 356.304 258.251 356.304C255.542 356.304 253.736 356.304 251.027 356.304C177.886 351.789 125.514 287.678 124.611 202.798Z" fill="#103680"/>
<path d="M445.166 526.967C390.987 547.735 338.615 544.123 285.34 525.161C240.191 508.004 196.848 486.333 149.894 473.691C102.036 461.05 54.1784 455.632 8.12671 479.109C7.22373 480.012 4.51487 479.109 0 478.206C28.8952 452.02 60.4993 440.281 96.6183 440.281C150.797 439.378 202.266 454.729 251.027 478.206C288.951 496.266 327.779 513.422 370.219 521.549C394.599 526.064 419.883 524.258 445.166 526.967Z" fill="#103680"/>
<path d="M359.385 439.378C387.377 439.378 415.369 438.475 440.653 423.125C456.003 414.095 466.839 401.453 465.936 382.491C465.033 364.431 455.1 352.693 438.847 348.178C425.302 344.566 414.467 349.984 407.243 360.819C397.31 375.267 405.437 387.006 415.369 397.841C396.407 400.55 381.959 381.588 386.474 359.916C390.086 341.857 400.019 329.215 418.078 322.894C438.847 315.671 457.809 320.186 474.063 334.633C507.473 363.528 503.861 414.095 465.936 437.572C431.623 459.244 395.504 458.341 359.385 439.378Z" fill="#103680"/>
<path d="M496.635 427.639C496.635 427.639 485.799 448.407 471.351 453.825C456.904 459.243 416.27 490.847 309.719 433.96C203.168 377.072 148.087 368.042 130.027 368.945C111.968 369.848 74.0432 368.042 51.4689 387.005C28.8946 405.967 16.2528 413.191 22.5736 434.862C22.5736 434.862 36.1183 402.355 68.6253 396.938C101.132 391.52 130.93 387.908 165.243 400.549C199.556 413.191 288.048 452.019 300.689 461.952C313.331 471.884 382.86 492.653 415.367 488.138C447.874 483.623 461.419 484.526 494.829 447.504C495.732 446.601 504.761 431.251 496.635 427.639Z" fill="#103680"/>
</svg>
